<svg width="14" height="19" viewBox="0 0 14 19" fill="none" xmlns="http://www.w3.org/2000/svg">
<path d="M7.0554 18.2386C5.85085 18.2386 4.77699 18.017 3.83381 17.5739C2.89631 17.1307 2.15199 16.5199 1.60085 15.7415C1.04972 14.9631 0.762784 14.071 0.740057 13.0653H4.3196C4.35938 13.7415 4.64347 14.2898 5.17188 14.7102C5.70028 15.1307 6.32812 15.3409 7.0554 15.3409C7.63494 15.3409 8.14631 15.2131 8.58949 14.9574C9.03835 14.696 9.38778 14.3352 9.63778 13.875C9.89347 13.4091 10.0213 12.875 10.0213 12.2727C10.0213 11.6591 9.89063 11.1193 9.62926 10.6534C9.37358 10.1875 9.01847 9.82386 8.56392 9.5625C8.10938 9.30114 7.58949 9.16761 7.00426 9.16193C6.4929 9.16193 5.99574 9.26705 5.51278 9.47727C5.03551 9.6875 4.66335 9.97443 4.39631 10.3381L1.11506 9.75L1.94176 0.545454H12.6122V3.5625H4.98438L4.53267 7.93466H4.63494C4.94176 7.50284 5.40483 7.14489 6.02415 6.8608C6.64347 6.5767 7.33665 6.43466 8.10369 6.43466C9.15483 6.43466 10.0923 6.68182 10.9162 7.17614C11.7401 7.67045 12.3906 8.34943 12.8679 9.21307C13.3452 10.071 13.581 11.0597 13.5753 12.179C13.581 13.3551 13.3082 14.4006 12.7571 15.3153C12.2116 16.2244 11.4474 16.9403 10.4645 17.4631C9.48722 17.9801 8.35085 18.2386 7.0554 18.2386Z" fill="white"/>
</svg>
